{
  "accessors": [
    {
      "bufferView": 2,
      "componentType": 5126,
      "count": 5669,
      "max": [
        9.856578826904297,
        8.152826309204102,
        -0.29974400997161865
      ],
      "min": [
        -8.863140106201172,
        -10.43735122680664,
        -0.2997469902038574
      ],
      "type": "VEC3"
    },
    {
      "bufferView": 2,
      "byteOffset": 68028,
      "componentType": 5126,
      "count": 5669,
      "max": [
        0.007599780801683664,
        0.009600403718650341,
        -0.9997711777687073
      ],
      "min": [
        -0.0032999818213284016,
        -0.019999422132968903,
        -1.0
      ],
      "type": "VEC3"
    },
    {
      "bufferView": 1,
      "componentType": 5126,
      "count": 5669,
      "max": [
        0.8134049773216248,
        0.6992560029029846
      ],
      "min": [
        0.6794880032539368,
        0.5669969916343689
      ],
      "type": "VEC2"
    },
    {
      "bufferView": 0,
      "componentType": 5125,
      "count": 10137,
      "type": "SCALAR"
    },
    {
      "bufferView": 2,
      "byteOffset": 136056,
      "componentType": 5126,
      "count": 5124,
      "max": [
        9.856578826904297,
        8.152826309204102,
        2.093761920928955
      ],
      "min": [
        -8.863140106201172,
        -10.43735122680664,
        -0.2997469902038574
      ],
      "type": "VEC3"
    },
    {
      "bufferView": 2,
      "byteOffset": 197544,
      "componentType": 5126,
      "count": 5124,
      "max": [
        0.9999717473983765,
        0.9999661445617676,
        0.9785006046295166
      ],
      "min": [
        -0.9999732971191406,
        -0.9995418190956116,
        -0.013800274580717087
      ],
      "type": "VEC3"
    },
    {
      "bufferView": 1,
      "byteOffset": 45352,
      "componentType": 5126,
      "count": 5124,
      "max": [
        0.9288380146026611,
        0.9944990277290344
      ],
      "min": [
        0.04837099835276604,
        0.19770100712776184
      ],
      "type": "VEC2"
    },
    {
      "bufferView": 0,
      "byteOffset": 40548,
      "componentType": 5125,
      "count": 15384,
      "type": "SCALAR"
    },
    {
      "bufferView": 2,
      "byteOffset": 259032,
      "componentType": 5126,
      "count": 63,
      "max": [
        -7.3581109046936035,
        -3.449881076812744,
        1.032412052154541
      ],
      "min": [
        -7.585071086883545,
        -3.7355899810791016,
        0.9538649916648865
      ],
      "type": "VEC3"
    },
    {
      "bufferView": 2,
      "byteOffset": 259788,
      "componentType": 5126,
      "count": 63,
      "max": [
        0.948863685131073,
        0.6371973156929016,
        0.9730639457702637
      ],
      "min": [
        -0.8954434394836426,
        -0.9186606407165527,
        -0.5804076194763184
      ],
      "type": "VEC3"
    },
    {
      "bufferView": 3,
      "componentType": 5126,
      "count": 63,
      "max": [
        0.997994601726532,
        0.996338427066803,
        0.3482303023338318,
        1.0
      ],
      "min": [
        -0.38801947236061096,
        -0.9960493445396423,
        -0.9670230150222778,
        1.0
      ],
      "type": "VEC4"
    },
    {
      "bufferView": 1,
      "byteOffset": 86344,
      "componentType": 5126,
      "count": 63,
      "max": [
        0.0,
        0.0
      ],
      "min": [
        0.0,
        0.0
      ],
      "type": "VEC2"
    },
    {
      "bufferView": 0,
      "byteOffset": 102084,
      "componentType": 5125,
      "count": 63,
      "type": "SCALAR"
    },
    {
      "bufferView": 2,
      "byteOffset": 260544,
      "componentType": 5126,
      "count": 65532,
      "max": [
        8.443660736083984,
        7.0673370361328125,
        6.620633125305176
      ],
      "min": [
        -7.892932891845703,
        -10.416897773742676,
        0.0578790009021759
      ],
      "type": "VEC3"
    },
    {
      "bufferView": 2,
      "byteOffset": 1046928,
      "componentType": 5126,
      "count": 65532,
      "max": [
        0.999964714050293,
        0.9998619556427002,
        0.9999998807907104
      ],
      "min": [
        -0.9999979734420776,
        -0.9999980926513672,
        -0.9999799728393555
      ],
      "type": "VEC3"
    },
    {
      "bufferView": 3,
      "byteOffset": 1008,
      "componentType": 5126,
      "count": 65532,
      "max": [
        0.9998602867126465,
        0.9999975562095642,
        0.9999825358390808,
        1.0
      ],
      "min": [
        -0.9999843835830688,
        -0.9999799132347107,
        -0.9999889135360718,
        -1.0
      ],
      "type": "VEC4"
    },
    {
      "bufferView": 1,
      "byteOffset": 86848,
      "componentType": 5126,
      "count": 65532,
      "max": [
        0.9999979734420776,
        0.9988939762115479
      ],
      "min": [
        1.8000000636675395e-05,
        0.0016580000519752502
      ],
      "type": "VEC2"
    },
    {
      "bufferView": 0,
      "byteOffset": 102336,
      "componentType": 5125,
      "count": 358071,
      "type": "SCALAR"
    },
    {
      "bufferView": 2,
      "byteOffset": 1833312,
      "componentType": 5126,
      "count": 65532,
      "max": [
        5.703595161437988,
        0.2272379994392395,
        7.877216815948486
      ],
      "min": [
        -8.855628967285156,
        -10.351272583007813,
        0.028439000248908997
      ],
      "type": "VEC3"
    },
    {
      "bufferView": 2,
      "byteOffset": 2619696,
      "componentType": 5126,
      "count": 65532,
      "max": [
        0.9997749924659729,
        0.9992115497589111,
        0.9999996423721313
      ],
      "min": [
        -0.9999849796295166,
        -0.999996542930603,
        -0.9999861717224121
      ],
      "type": "VEC3"
    },
    {
      "bufferView": 3,
      "byteOffset": 1049520,
      "componentType": 5126,
      "count": 65532,
      "max": [
        0.9999943971633911,
        0.9999839067459106,
        0.9999838471412659,
        1.0
      ],
      "min": [
        -0.9999985098838806,
        -0.9999982118606567,
        -0.9998839497566223,
        -1.0
      ],
      "type": "VEC4"
    },
    {
      "bufferView": 1,
      "byteOffset": 611104,
      "componentType": 5126,
      "count": 65532,
      "max": [
        0.995468020439148,
        0.9999499917030334
      ],
      "min": [
        0.0002460000105202198,
        3.600000127335079e-05
      ],
      "type": "VEC2"
    },
    {
      "bufferView": 0,
      "byteOffset": 1534620,
      "componentType": 5125,
      "count": 347979,
      "type": "SCALAR"
    },
    {
      "bufferView": 2,
      "byteOffset": 3406080,
      "componentType": 5126,
      "count": 65532,
      "max": [
        7.033626079559326,
        5.481180191040039,
        9.408716201782227
      ],
      "min": [
        -8.629463195800781,
        -9.558462142944336,
        0.030063999816775322
      ],
      "type": "VEC3"
    },
    {
      "bufferView": 2,
      "byteOffset": 4192464,
      "componentType": 5126,
      "count": 65532,
      "max": [
        0.9999991655349731,
        0.9999988079071045,
        0.9999958276748657
      ],
      "min": [
        -0.9999929666519165,
        -0.9999969005584717,
        -0.99998939037323
      ],
      "type": "VEC3"
    },
    {
      "bufferView": 3,
      "byteOffset": 2098032,
      "componentType": 5126,
      "count": 65532,
      "max": [
        0.9999834299087524,
        0.999961256980896,
        0.9999417066574097,
        1.0
      ],
      "min": [
        -0.9999868869781494,
        -0.9999887943267822,
        -0.9999967217445374,
        -1.0
      ],
      "type": "VEC4"
    },
    {
      "bufferView": 1,
      "byteOffset": 1135360,
      "componentType": 5126,
      "count": 65532,
      "max": [
        0.9999960064888,
        0.9997550249099731
      ],
      "min": [
        0.0011139999842271209,
        0.0005290000117383897
      ],
      "type": "VEC2"
    },
    {
      "bufferView": 0,
      "byteOffset": 2926536,
      "componentType": 5125,
      "count": 341469,
      "type": "SCALAR"
    },
    {
      "bufferView": 2,
      "byteOffset": 4978848,
      "componentType": 5126,
      "count": 65532,
      "max": [
        9.809041976928711,
        7.806807994842529,
        7.905817985534668
      ],
      "min": [
        -6.489391803741455,
        -3.0846099853515625,
        0.9315249919891357
      ],
      "type": "VEC3"
    },
    {
      "bufferView": 2,
      "byteOffset": 5765232,
      "componentType": 5126,
      "count": 65532,
      "max": [
        0.9999860525131226,
        0.9999904632568359,
        0.9999994039535522
      ],
      "min": [
        -0.9999346733093262,
        -0.9980340600013733,
        -0.9999822378158569
      ],
      "type": "VEC3"
    },
    {
      "bufferView": 3,
      "byteOffset": 3146544,
      "componentType": 5126,
      "count": 65532,
      "max": [
        0.9999971389770508,
        0.9998629093170166,
        0.9999495148658752,
        1.0
      ],
      "min": [
        -0.9999791383743286,
        -0.9999868869781494,
        -0.9999992847442627,
        -1.0
      ],
      "type": "VEC4"
    },
    {
      "bufferView": 1,
      "byteOffset": 1659616,
      "componentType": 5126,
      "count": 65532,
      "max": [
        0.9997919797897339,
        0.9999330043792725
      ],
      "min": [
        0.015961000695824623,
        0.00060299999313429
      ],
      "type": "VEC2"
    },
    {
      "bufferView": 0,
      "byteOffset": 4292412,
      "componentType": 5125,
      "count": 352386,
      "type": "SCALAR"
    },
    {
      "bufferView": 2,
      "byteOffset": 6551616,
      "componentType": 5126,
      "count": 65532,
      "max": [
        9.564851760864258,
        8.148717880249023,
        6.402111053466797
      ],
      "min": [
        -3.71199893951416,
        -0.8242869973182678,
        0.05549199879169464
      ],
      "type": "VEC3"
    },
    {
      "bufferView": 2,
      "byteOffset": 7338000,
      "componentType": 5126,
      "count": 65532,
      "max": [
        0.9999927282333374,
        0.999998927116394,
        0.9999992847442627
      ],
      "min": [
        -0.9996494650840759,
        -0.9997264742851257,
        -0.9999468326568604
      ],
      "type": "VEC3"
    },
    {
      "bufferView": 3,
      "byteOffset": 4195056,
      "componentType": 5126,
      "count": 65532,
      "max": [
        0.9999997615814209,
        0.9999960660934448,
        0.9999743103981018,
        1.0
      ],
      "min": [
        -0.9999993443489075,
        -0.9999971985816956,
        -0.9999817609786987,
        -1.0
      ],
      "type": "VEC4"
    },
    {
      "bufferView": 1,
      "byteOffset": 2183872,
      "componentType": 5126,
      "count": 65532,
      "max": [
        0.9999409914016724,
        0.9999799728393555
      ],
      "min": [
        0.00010399999882793054,
        0.0002229999954579398
      ],
      "type": "VEC2"
    },
    {
      "bufferView": 0,
      "byteOffset": 5701956,
      "componentType": 5125,
      "count": 344523,
      "type": "SCALAR"
    },
    {
      "bufferView": 2,
      "byteOffset": 8124384,
      "componentType": 5126,
      "count": 65532,
      "max": [
        9.778362274169922,
        8.121599197387695,
        8.29317855834961
      ],
      "min": [
        -7.760589122772217,
        -6.270510196685791,
        0.4206309914588928
      ],
      "type": "VEC3"
    },
    {
      "bufferView": 2,
      "byteOffset": 8910768,
      "componentType": 5126,
      "count": 65532,
      "max": [
        0.9999991655349731,
        0.9999898672103882,
        0.9999998807907104
      ],
      "min": [
        -0.9999939203262329,
        -0.9999927282333374,
        -0.999984622001648
      ],
      "type": "VEC3"
    },
    {
      "bufferView": 3,
      "byteOffset": 5243568,
      "componentType": 5126,
      "count": 65532,
      "max": [
        0.9999979734420776,
        0.9999771118164063,
        0.9999586343765259,
        1.0
      ],
      "min": [
        -0.99995356798172,
        -0.9999147057533264,
        -0.9999868869781494,
        -1.0
      ],
      "type": "VEC4"
    },
    {
      "bufferView": 1,
      "byteOffset": 2708128,
      "componentType": 5126,
      "count": 65532,
      "max": [
        0.998432993888855,
        0.9999619722366333
      ],
      "min": [
        0.0006830000202171504,
        6.600000051548705e-05
      ],
      "type": "VEC2"
    },
    {
      "bufferView": 0,
      "byteOffset": 7080048,
      "componentType": 5125,
      "count": 327369,
      "type": "SCALAR"
    },
    {
      "bufferView": 2,
      "byteOffset": 9697152,
      "componentType": 5126,
      "count": 61514,
      "max": [
        9.397783279418945,
        4.64483118057251,
        8.944574356079102
      ],
      "min": [
        -8.27554702758789,
        -8.378396987915039,
        0.08957599848508835
      ],
      "type": "VEC3"
    },
    {
      "bufferView": 2,
      "byteOffset": 10435320,
      "componentType": 5126,
      "count": 61514,
      "max": [
        0.9999984502792358,
        0.9999988079071045,
        0.999995231628418
      ],
      "min": [
        -0.99997878074646,
        -0.9999918937683105,
        -0.9999659061431885
      ],
      "type": "VEC3"
    },
    {
      "bufferView": 3,
      "byteOffset": 6292080,
      "componentType": 5126,
      "count": 61514,
      "max": [
        0.9999949336051941,
        0.9999504089355469,
        0.9999032020568848,
        1.0
      ],
      "min": [
        -0.9999813437461853,
        -0.9999998807907104,
        -0.9998456835746765,
        -1.0
      ],
      "type": "VEC4"
    },
    {
      "bufferView": 1,
      "byteOffset": 3232384,
      "componentType": 5126,
      "count": 61514,
      "max": [
        0.9999719858169556,
        0.9998329877853394
      ],
      "min": [
        2.8000000384054147e-05,
        0.0002209999947808683
      ],
      "type": "VEC2"
    },
    {
      "bufferView": 0,
      "byteOffset": 8389524,
      "componentType": 5125,
      "count": 306153,
      "type": "SCALAR"
    }
  ],
  "asset": {
    "extras": {
      "author": "Lassi Kaukonen (https://sketchfab.com/thesidekick)",
      "license": "CC-BY-4.0 (http://creativecommons.org/licenses/by/4.0/)",
      "source": "https://sketchfab.com/3d-models/stone-castle-in-sastamala-finland-e240d96606e74780b15ff9df7ad114d4",
      "title": "Stone Castle In Sastamala, Finland"
    },
    "generator": "Sketchfab-13.74.0",
    "version": "2.0"
  },
  "bufferViews": [
    {
      "buffer": 0,
      "byteLength": 9614136,
      "name": "floatBufferViews",
      "target": 34963
    },
    {
      "buffer": 0,
      "byteLength": 3724496,
      "byteOffset": 9614136,
      "byteStride": 8,
      "name": "floatBufferViews",
      "target": 34962
    },
    {
      "buffer": 0,
      "byteLength": 11173488,
      "byteOffset": 13338632,
      "byteStride": 12,
      "name": "floatBufferViews",
      "target": 34962
    },
    {
      "buffer": 0,
      "byteLength": 7276304,
      "byteOffset": 24512120,
      "byteStride": 16,
      "name": "floatBufferViews",
      "target": 34962
    }
  ],
  "buffers": [
    {
      "byteLength": 31788424,
      "uri": "scene.bin"
    }
  ],
  "images": [
    {
      "uri": "textures/Stone_Castle_in_Sastamala_Finland_baseColor.jpeg"
    },
    {
      "uri": "textures/Stone_Castle_in_Sastamala_Finland_metallicRoughness.png"
    },
    {
      "uri": "textures/Stone_Castle_in_Sastamala_Finland_normal.png"
    }
  ],
  "materials": [
    {
      "doubleSided": true,
      "name": "Base",
      "pbrMetallicRoughness": {
        "baseColorFactor": [
          0.043232,
          0.043232,
          0.043232,
          1.0
        ],
        "metallicFactor": 0.0,
        "roughnessFactor": 0.8063508326896291
      }
    },
    {
      "doubleSided": true,
      "emissiveFactor": [
        0.5333349587351123,
        0.5333349587351123,
        0.5333349587351123
      ],
      "emissiveTexture": {
        "index": 0
      },
      "name": "Stone_Castle_in_Sastamala_Finland",
      "normalTexture": {
        "index": 2
      },
      "occlusionTexture": {
        "index": 1
      },
      "pbrMetallicRoughness": {
        "baseColorFactor": [
          0.46171569284782576,
          0.46171569284782576,
          0.46171569284782576,
          1.0
        ],
        "baseColorTexture": {
          "index": 0
        },
        "metallicFactor": 0.0,
        "metallicRoughnessTexture": {
          "index": 1
        }
      }
    }
  ],
  "meshes": [
    {
      "name": "Object_0",
      "primitives": [
        {
          "attributes": {
            "NORMAL": 1,
            "POSITION": 0,
            "TEXCOORD_0": 2
          },
          "indices": 3,
          "material": 0,
          "mode": 4
        }
      ]
    },
    {
      "name": "Object_1",
      "primitives": [
        {
          "attributes": {
            "NORMAL": 5,
            "POSITION": 4,
            "TEXCOORD_0": 6
          },
          "indices": 7,
          "material": 0,
          "mode": 4
        }
      ]
    },
    {
      "name": "Object_2",
      "primitives": [
        {
          "attributes": {
            "NORMAL": 9,
            "POSITION": 8,
            "TANGENT": 10,
            "TEXCOORD_0": 11
          },
          "indices": 12,
          "material": 1,
          "mode": 4
        }
      ]
    },
    {
      "name": "Object_3",
      "primitives": [
        {
          "attributes": {
            "NORMAL": 14,
            "POSITION": 13,
            "TANGENT": 15,
            "TEXCOORD_0": 16
          },
          "indices": 17,
          "material": 1,
          "mode": 4
        }
      ]
    },
    {
      "name": "Object_4",
      "primitives": [
        {
          "attributes": {
            "NORMAL": 19,
            "POSITION": 18,
            "TANGENT": 20,
            "TEXCOORD_0": 21
          },
          "indices": 22,
          "material": 1,
          "mode": 4
        }
      ]
    },
    {
      "name": "Object_5",
      "primitives": [
        {
          "attributes": {
            "NORMAL": 24,
            "POSITION": 23,
            "TANGENT": 25,
            "TEXCOORD_0": 26
          },
          "indices": 27,
          "material": 1,
          "mode": 4
        }
      ]
    },
    {
      "name": "Object_6",
      "primitives": [
        {
          "attributes": {
            "NORMAL": 29,
            "POSITION": 28,
            "TANGENT": 30,
            "TEXCOORD_0": 31
          },
          "indices": 32,
          "material": 1,
          "mode": 4
        }
      ]
    },
    {
      "name": "Object_7",
      "primitives": [
        {
          "attributes": {
            "NORMAL": 34,
            "POSITION": 33,
            "TANGENT": 35,
            "TEXCOORD_0": 36
          },
          "indices": 37,
          "material": 1,
          "mode": 4
        }
      ]
    },
    {
      "name": "Object_8",
      "primitives": [
        {
          "attributes": {
            "NORMAL": 39,
            "POSITION": 38,
            "TANGENT": 40,
            "TEXCOORD_0": 41
          },
          "indices": 42,
          "material": 1,
          "mode": 4
        }
      ]
    },
    {
      "name": "Object_9",
      "primitives": [
        {
          "attributes": {
            "NORMAL": 44,
            "POSITION": 43,
            "TANGENT": 45,
            "TEXCOORD_0": 46
          },
          "indices": 47,
          "material": 1,
          "mode": 4
        }
      ]
    }
  ],
  "nodes": [
    {
      "children": [
        1
      ],
      "matrix": [
        1.0,
        0.0,
        0.0,
        0.0,
        0.0,
        2.220446049250313e-16,
        -1.0,
        0.0,
        0.0,
        1.0,
        2.220446049250313e-16,
        0.0,
        0.0,
        0.0,
        0.0,
        1.0
      ],
      "name": "Sketchfab_model"
    },
    {
      "children": [
        2,
        3,
        4,
        5,
        6,
        7,
        8,
        9,
        10,
        11
      ],
      "name": "Stone_Castle_in_Sastamala_Finland_SF.obj.cleaner.materialmerger.gles"
    },
    {
      "mesh": 0,
      "name": "Object_2"
    },
    {
      "mesh": 1,
      "name": "Object_3"
    },
    {
      "mesh": 2,
      "name": "Object_4"
    },
    {
      "mesh": 3,
      "name": "Object_5"
    },
    {
      "mesh": 4,
      "name": "Object_6"
    },
    {
      "mesh": 5,
      "name": "Object_7"
    },
    {
      "mesh": 6,
      "name": "Object_8"
    },
    {
      "mesh": 7,
      "name": "Object_9"
    },
    {
      "mesh": 8,
      "name": "Object_10"
    },
    {
      "mesh": 9,
      "name": "Object_11"
    }
  ],
  "samplers": [
    {
      "magFilter": 9729,
      "minFilter": 9987,
      "wrapS": 10497,
      "wrapT": 10497
    }
  ],
  "scene": 0,
  "scenes": [
    {
      "name": "Sketchfab_Scene",
      "nodes": [
        0
      ]
    }
  ],
  "textures": [
    {
      "sampler": 0,
      "source": 0
    },
    {
      "sampler": 0,
      "source": 1
    },
    {
      "sampler": 0,
      "source": 2
    }
  ]
}
